<svg xmlns="http://www.w3.org/2000/svg" viewBox="0 0 87.86 94.18" id="work"><g data-name="Layer 2"><g data-name="Layer 1"><path fill="#06c" d="M21.61 0h44.17a9.41 9.41 0 0 1 9.42 9.41v22.18A9.41 9.41 0 0 1 65.78 41H21.61a9.41 9.41 0 0 1-9.41-9.41V9.41A9.41 9.41 0 0 1 21.61 0Z"></path><path fill="#353434" d="M41.2 47v-9h6v9h24.86a3.14 3.14 0 0 1 3.14 3.14v6.38a19.55 19.55 0 0 0-6-.46V53h-51v3.06a19.52 19.52 0 0 0-6 .46v-6.38A3.13 3.13 0 0 1 15.34 47ZM17.26 59.66A17.26 17.26 0 1 1 0 76.92a17.26 17.26 0 0 1 17.26-17.26Zm0 6.28a11 11 0 1 0 11 11 11 11 0 0 0-11-11Zm53.35-6.28a17.26 17.26 0 1 1-17.26 17.26 17.25 17.25 0 0 1 17.26-17.26Zm0 6.28a11 11 0 1 0 11 11 11 11 0 0 0-11-11Z"></path><path fill="#fff" d="M35.63 16.3a1.57 1.57 0 1 0-2.22 2.22l6.66 6.66a1.56 1.56 0 0 0 2.21 0l11.1-11.1a1.57 1.57 0 1 0-2.18-2.25l-10 10-5.57-5.53Z"></path></g></g></svg>